<?xml version="1.0" encoding="UTF-8" standalone="no"?>
<!-- Created with Inkscape (http://www.inkscape.org/) -->

<svg
   xmlns:dc="http://purl.org/dc/elements/1.1/"
   xmlns:cc="http://creativecommons.org/ns#"
   xmlns:rdf="http://www.w3.org/1999/02/22-rdf-syntax-ns#"
   xmlns:svg="http://www.w3.org/2000/svg"
   xmlns="http://www.w3.org/2000/svg"
   xmlns:sodipodi="http://sodipodi.sourceforge.net/DTD/sodipodi-0.dtd"
   xmlns:inkscape="http://www.inkscape.org/namespaces/inkscape"
   width="1200"
   height="630"
   viewBox="0 0 317.49999 166.68751"
   version="1.1"
   id="svg8"
   inkscape:version="0.92.5 (2060ec1f9f, 2020-04-08)"
   sodipodi:docname="8a-training-thumbnail.svg"
   inkscape:export-filename="/home/s8a/Projects/umc-prw703-proyecto/public/assets/img/8a-training-thumbnail.png"
   inkscape:export-xdpi="96"
   inkscape:export-ydpi="96">
  <defs
     id="defs2" />
  <sodipodi:namedview
     id="base"
     pagecolor="#ffffff"
     bordercolor="#666666"
     borderopacity="1.0"
     inkscape:pageopacity="0.0"
     inkscape:pageshadow="2"
     inkscape:zoom="0.29541668"
     inkscape:cx="618.32412"
     inkscape:cy="239.77179"
     inkscape:document-units="mm"
     inkscape:current-layer="layer1"
     showgrid="false"
     units="px"
     inkscape:window-width="1366"
     inkscape:window-height="711"
     inkscape:window-x="0"
     inkscape:window-y="0"
     inkscape:window-maximized="1" />
  <metadata
     id="metadata5">
    <rdf:RDF>
      <cc:Work
         rdf:about="">
        <dc:format>image/svg+xml</dc:format>
        <dc:type
           rdf:resource="http://purl.org/dc/dcmitype/StillImage" />
        <dc:title />
      </cc:Work>
    </rdf:RDF>
  </metadata>
  <g
     inkscape:label="Layer 1"
     inkscape:groupmode="layer"
     id="layer1"
     transform="translate(0,-130.31248)">
    <rect
       style="opacity:1;fill:#002b36;fill-opacity:1;stroke:none;stroke-width:0.52916664;stroke-miterlimit:4;stroke-dasharray:none"
       id="rect10"
       width="317.5"
       height="166.68748"
       x="0"
       y="130.31245" />
    <g
       id="g92"
       transform="translate(-9.627993,0.84521259)">
      <g
         transform="translate(87.999836,-58.259838)"
         id="g57">
        <g
           aria-label="8A"
           transform="scale(0.98260811,1.0176997)"
           style="font-style:normal;font-weight:normal;font-size:28.22656631px;line-height:1.25;font-family:sans-serif;letter-spacing:0px;word-spacing:0px;fill:#859900;fill-opacity:1;stroke:none;stroke-width:0.26458323"
           id="text925-3">
          <path
             inkscape:connector-curvature="0"
             d="m 21.595523,259.84833 q 0,1.33966 -0.595404,2.53047 -0.595404,1.1908 -1.620822,2.03429 1.786212,1.07504 2.844708,2.84471 1.075035,1.76967 1.075035,3.87013 0,2.13353 -1.075035,3.93628 -1.075035,1.78621 -2.927403,2.82817 -1.852368,1.04196 -4.018977,1.04196 -3.340879,0 -5.7059561,-2.28239 -2.3485383,-2.28238 -2.3485383,-5.52402 0,-2.11699 1.0584962,-3.88667 1.0584961,-1.76967 2.8777862,-2.82817 -1.041957,-0.84349 -1.6539001,-2.03429 -0.5954041,-1.19081 -0.5954041,-2.53047 0,-2.51393 1.8689072,-4.26706 1.868907,-1.76968 4.498609,-1.76968 2.596623,0 4.448991,1.76968 1.868907,1.75313 1.868907,4.26706 z m -10.154947,7.57486 q -1.6042831,1.53813 -1.6042831,3.70474 0,2.16661 1.6042831,3.73781 1.620822,1.55467 3.837049,1.55467 2.216226,0 3.80397,-1.55467 1.604283,-1.5712 1.604283,-3.73781 0,-2.16661 -1.604283,-3.70474 -1.587744,-1.55466 -3.80397,-1.55466 -2.232766,0 -3.837049,1.55466 z m 3.837049,-4.10167 q 1.505049,0 2.596623,-1.02542 1.108113,-1.02542 1.108113,-2.44777 0,-1.42236 -1.091574,-2.44777 -1.091574,-1.04196 -2.613162,-1.04196 -1.554667,0 -2.646241,1.02542 -1.091574,1.02542 -1.091574,2.46431 0,1.42235 1.091574,2.44777 1.091574,1.02542 2.646241,1.02542 z"
             style="font-style:normal;font-variant:normal;font-weight:bold;font-stretch:normal;font-size:33.87187576px;font-family:Sawasdee;-inkscape-font-specification:'Sawasdee Bold';fill:#859900;fill-opacity:1;stroke-width:0.26458323"
             id="path47" />
          <path
             inkscape:connector-curvature="0"
             d="m 32.395491,268.82901 h 8.021416 l -4.035517,-8.46797 z m -1.207347,2.547 -3.059715,7.31024 h -2.811631 l 11.031514,-24.90773 11.031515,24.90773 h -2.82817 l -3.109332,-7.31024 z"
             style="font-style:normal;font-variant:normal;font-weight:bold;font-stretch:normal;font-size:33.87187576px;font-family:Sawasdee;-inkscape-font-specification:'Sawasdee Bold';fill:#859900;fill-opacity:1;stroke-width:0.26458323"
             id="path49" />
        </g>
        <rect
           style="opacity:1;fill:#b58900;fill-opacity:1;stroke:none;stroke-width:0.5291667;stroke-miterlimit:4;stroke-dasharray:none"
           id="rect927-6"
           width="40.216694"
           height="2.8726163"
           x="6.7183061"
           y="250.96248" />
        <rect
           style="opacity:1;fill:#b58900;fill-opacity:1;stroke:none;stroke-width:0.5291667;stroke-miterlimit:4;stroke-dasharray:none"
           id="rect927-8-7"
           width="40.216694"
           height="2.8726163"
           x="6.7183061"
           y="288.30655" />
      </g>
      <g
         transform="translate(88.368144,-58.480468)"
         id="text3731"
         style="font-style:normal;font-weight:normal;font-size:10.58333302px;line-height:1.25;font-family:sans-serif;letter-spacing:0px;word-spacing:0px;fill:#ffffff;fill-opacity:1;stroke:none;stroke-width:0.26458332"
         aria-label="Training">
        <path
           inkscape:connector-curvature="0"
           id="path16"
           style="font-style:normal;font-variant:normal;font-weight:normal;font-stretch:normal;font-size:28.22222137px;font-family:'Nimbus Sans';-inkscape-font-specification:'Nimbus Sans';fill:#ffffff;stroke-width:0.26458332"
           d="m 66.547997,262.75423 h 6.745111 v -2.31422 h -16.14311 v 2.31422 h 6.773333 v 18.25978 h 2.624666 z" />
        <path
           inkscape:connector-curvature="0"
           id="path18"
           style="font-style:normal;font-variant:normal;font-weight:normal;font-stretch:normal;font-size:28.22222137px;font-family:'Nimbus Sans';-inkscape-font-specification:'Nimbus Sans';fill:#ffffff;stroke-width:0.26458332"
           d="m 73.151918,266.22556 v 14.78845 h 2.370667 v -7.67645 c 0.02822,-3.556 1.495778,-5.13644 4.741333,-5.05177 v -2.39889 c -0.395111,-0.0565 -0.620889,-0.0847 -0.903111,-0.0847 -1.524,0 -2.681111,0.90311 -4.035778,3.10444 v -2.68111 z" />
        <path
           inkscape:connector-curvature="0"
           id="path20"
           style="font-style:normal;font-variant:normal;font-weight:normal;font-stretch:normal;font-size:28.22222137px;font-family:'Nimbus Sans';-inkscape-font-specification:'Nimbus Sans';fill:#ffffff;stroke-width:0.26458332"
           d="m 95.58849,279.63112 c -0.254,0.0564 -0.366889,0.0564 -0.508,0.0564 -0.818445,0 -1.27,-0.42333 -1.27,-1.15711 v -8.69244 c 0,-2.62467 -1.919111,-4.03578 -5.559778,-4.03578 -2.173111,0 -3.894667,0.62089 -4.910667,1.72156 -0.677333,0.762 -0.959555,1.60866 -1.015999,3.07622 h 2.370666 c 0.197556,-1.80622 1.27,-2.62467 3.471333,-2.62467 2.144889,0 3.302,0.79022 3.302,2.20133 v 0.62089 c -0.02822,1.016 -0.536222,1.38289 -2.455333,1.63689 -3.330222,0.42334 -3.838222,0.53622 -4.741333,0.90311 -1.721556,0.73378 -2.596445,2.032 -2.596445,3.95111 0,2.68112 1.862667,4.37445 4.854223,4.37445 1.862666,0 3.358444,-0.64911 5.023555,-2.17311 0.169333,1.524 0.903111,2.17311 2.427111,2.17311 0.508,0 0.818444,-0.0564 1.608667,-0.254 z m -4.120445,-3.27378 c 0,0.79022 -0.225778,1.27 -0.931333,1.91911 -0.959556,0.87489 -2.116667,1.32645 -3.499556,1.32645 -1.834444,0 -2.906888,-0.87489 -2.906888,-2.37067 0,-1.55222 1.016,-2.34244 3.556,-2.70933 2.511777,-0.33867 2.991555,-0.45156 3.781777,-0.81845 z" />
        <path
           inkscape:connector-curvature="0"
           id="path22"
           style="font-style:normal;font-variant:normal;font-weight:normal;font-stretch:normal;font-size:28.22222137px;font-family:'Nimbus Sans';-inkscape-font-specification:'Nimbus Sans';fill:#ffffff;stroke-width:0.26458332"
           d="m 100.41448,266.22556 h -2.342443 v 14.78845 h 2.342443 z m 0,-5.78555 h -2.370665 v 2.96333 h 2.370665 z" />
        <path
           inkscape:connector-curvature="0"
           id="path24"
           style="font-style:normal;font-variant:normal;font-weight:normal;font-stretch:normal;font-size:28.22222137px;font-family:'Nimbus Sans';-inkscape-font-specification:'Nimbus Sans';fill:#ffffff;stroke-width:0.26458332"
           d="m 104.42199,266.22556 v 14.78845 h 2.37066 v -8.15622 c 0,-3.01978 1.58045,-4.99534 4.00756,-4.99534 1.86266,0 3.048,1.12889 3.048,2.90689 v 10.24467 h 2.34244 v -11.176 c 0,-2.45534 -1.83444,-4.03578 -4.68489,-4.03578 -2.20133,0 -3.61244,0.84667 -4.91066,2.90689 v -2.48356 z" />
        <path
           inkscape:connector-curvature="0"
           id="path26"
           style="font-style:normal;font-variant:normal;font-weight:normal;font-stretch:normal;font-size:28.22222137px;font-family:'Nimbus Sans';-inkscape-font-specification:'Nimbus Sans';fill:#ffffff;stroke-width:0.26458332"
           d="m 122.37131,266.22556 h -2.34244 v 14.78845 h 2.34244 z m 0,-5.78555 h -2.37066 v 2.96333 h 2.37066 z" />
        <path
           inkscape:connector-curvature="0"
           id="path28"
           style="font-style:normal;font-variant:normal;font-weight:normal;font-stretch:normal;font-size:28.22222137px;font-family:'Nimbus Sans';-inkscape-font-specification:'Nimbus Sans';fill:#ffffff;stroke-width:0.26458332"
           d="m 126.37882,266.22556 v 14.78845 h 2.37067 v -8.15622 c 0,-3.01978 1.58044,-4.99534 4.00755,-4.99534 1.86267,0 3.048,1.12889 3.048,2.90689 v 10.24467 h 2.34244 v -11.176 c 0,-2.45534 -1.83444,-4.03578 -4.68488,-4.03578 -2.20134,0 -3.61245,0.84667 -4.91067,2.90689 v -2.48356 z" />
        <path
           inkscape:connector-curvature="0"
           id="path30"
           style="font-style:normal;font-variant:normal;font-weight:normal;font-stretch:normal;font-size:28.22222137px;font-family:'Nimbus Sans';-inkscape-font-specification:'Nimbus Sans';fill:#ffffff;stroke-width:0.26458332"
           d="m 151.49659,266.22556 v 2.14489 c -1.18533,-1.778 -2.48355,-2.56822 -4.34622,-2.56822 -3.58422,0 -6.06778,3.33022 -6.06778,8.07156 0,2.48355 0.59267,4.28977 1.86267,5.78555 1.10067,1.29822 2.51178,2.00378 4.03578,2.00378 1.778,0 3.048,-0.79022 4.28977,-2.65289 v 0.762 c 0,3.95111 -1.10066,5.41867 -4.03577,5.41867 -2.00378,0 -3.048,-0.79023 -3.27378,-2.48356 h -2.39889 c 0.22578,2.73756 2.39889,4.45911 5.61622,4.45911 2.17311,0 3.97934,-0.70555 4.93889,-1.89089 1.12889,-1.38289 1.55222,-3.21733 1.55222,-6.68866 v -12.36134 z m -4.12044,1.74978 c 2.48355,0 3.89466,2.08845 3.89466,5.842 0,3.58422 -1.43933,5.67267 -3.89466,5.67267 -2.42711,0 -3.83822,-2.11667 -3.83822,-5.75734 0,-3.61244 1.41111,-5.75733 3.83822,-5.75733 z" />
      </g>
    </g>
  </g>
</svg>
