<?xml version="1.0" encoding="UTF-8" standalone="no"?>
<!-- Created with Inkscape (http://www.inkscape.org/) -->

<svg
   xmlns:dc="http://purl.org/dc/elements/1.1/"
   xmlns:cc="http://creativecommons.org/ns#"
   xmlns:rdf="http://www.w3.org/1999/02/22-rdf-syntax-ns#"
   xmlns:svg="http://www.w3.org/2000/svg"
   xmlns="http://www.w3.org/2000/svg"
   xmlns:sodipodi="http://sodipodi.sourceforge.net/DTD/sodipodi-0.dtd"
   xmlns:inkscape="http://www.inkscape.org/namespaces/inkscape"
   width="1200"
   height="630"
   viewBox="0 0 317.49999 166.68751"
   version="1.1"
   id="svg8"
   inkscape:version="0.92.3 (2405546, 2018-03-11)"
   sodipodi:docname="s8a_thumbnail.svg"
   inkscape:export-filename="/home/s8a/s8a.github.io/assets/img/s8a_thumbnail.png"
   inkscape:export-xdpi="96"
   inkscape:export-ydpi="96">
  <defs
     id="defs2" />
  <sodipodi:namedview
     id="base"
     pagecolor="#ffffff"
     bordercolor="#666666"
     borderopacity="1.0"
     inkscape:pageopacity="0.0"
     inkscape:pageshadow="2"
     inkscape:zoom="1.1816667"
     inkscape:cx="600"
     inkscape:cy="315"
     inkscape:document-units="mm"
     inkscape:current-layer="layer1"
     showgrid="false"
     units="px"
     inkscape:window-width="1920"
     inkscape:window-height="1015"
     inkscape:window-x="0"
     inkscape:window-y="0"
     inkscape:window-maximized="1" />
  <metadata
     id="metadata5">
    <rdf:RDF>
      <cc:Work
         rdf:about="">
        <dc:format>image/svg+xml</dc:format>
        <dc:type
           rdf:resource="http://purl.org/dc/dcmitype/StillImage" />
        <dc:title />
      </cc:Work>
    </rdf:RDF>
  </metadata>
  <g
     inkscape:label="Layer 1"
     inkscape:groupmode="layer"
     id="layer1"
     transform="translate(0,-130.31248)">
    <rect
       style="opacity:1;fill:#002b36;fill-opacity:1;stroke:none;stroke-width:0.52916664;stroke-miterlimit:4;stroke-dasharray:none"
       id="rect10"
       width="317.5"
       height="166.68748"
       x="0"
       y="130.31245" />
    <g
       id="g42"
       transform="translate(44.818306)">
      <g
         style="stroke-width:0.84210515"
         transform="matrix(1.1875002,0,0,1.1875002,-56.585881,-51.469783)"
         id="g22">
        <text
           xml:space="preserve"
           style="font-style:normal;font-weight:normal;font-size:23.76973724px;line-height:1.25;font-family:sans-serif;letter-spacing:0px;word-spacing:0px;fill:#859900;fill-opacity:1;stroke:none;stroke-width:0.22280689"
           x="47.273693"
           y="229.79189"
           id="text925"
           transform="scale(0.98260812,1.0176997)"><tspan
             sodipodi:role="line"
             id="tspan923"
             x="47.273693"
             y="229.79189"
             style="font-style:normal;font-variant:normal;font-weight:bold;font-stretch:normal;font-size:28.52367973px;font-family:Sawasdee;-inkscape-font-specification:'Sawasdee Bold';fill:#859900;fill-opacity:1;stroke-width:0.22280689">8A</tspan></text>
        <rect
           style="opacity:1;fill:#b58900;fill-opacity:1;stroke:none;stroke-width:0.44561398;stroke-miterlimit:4;stroke-dasharray:none"
           id="rect927"
           width="33.866684"
           height="2.419045"
           x="47.65126"
           y="206.33064" />
        <rect
           style="opacity:1;fill:#b58900;fill-opacity:1;stroke:none;stroke-width:0.44561398;stroke-miterlimit:4;stroke-dasharray:none"
           id="rect927-8"
           width="33.866684"
           height="2.419045"
           x="47.65126"
           y="237.77826" />
      </g>
      <g
         transform="matrix(1.2270937,0,0,1.2270937,-80.793577,-48.51999)"
         id="text3729"
         style="font-style:normal;font-weight:normal;font-size:10.58333302px;line-height:1.25;font-family:sans-serif;letter-spacing:0px;word-spacing:0px;fill:#000000;fill-opacity:1;stroke:none;stroke-width:0.21561787"
         aria-label="Samuel Ochoa">
        <path
           inkscape:connector-curvature="0"
           id="path3747"
           style="font-style:normal;font-variant:normal;font-weight:normal;font-stretch:normal;font-size:22.57777786px;font-family:FreeSans;-inkscape-font-specification:FreeSans;fill:#ffffff;stroke-width:0.21561787"
           d="m 113.8779,220.42957 q 1.26436,0 2.14489,-0.29351 0.88054,-0.29351 1.28694,-0.76765 0.42897,-0.47413 0.58702,-0.92569 0.18062,-0.47413 0.18062,-0.99342 0,-1.87395 -3.02542,-2.66418 l -4.08658,-1.08373 q -3.22862,-0.83538 -3.22862,-3.83822 0,-2.2352 1.55786,-3.52213 1.58045,-1.30952 4.28978,-1.30952 2.8448,0 4.42525,1.35467 1.58044,1.33209 1.60302,3.74791 h -1.98685 q -0.0226,-1.60302 -1.08373,-2.46098 -1.06115,-0.88053 -3.02542,-0.88053 -1.67076,0 -2.68676,0.76765 -0.99342,0.76764 -0.99342,2.00942 0,0.94826 0.6096,1.49013 0.6096,0.54187 2.09973,0.94827 l 4.13174,1.10631 q 1.67075,0.45155 2.57386,1.53529 0.92569,1.08373 0.92569,2.59644 0,0.65476 -0.18062,1.30951 -0.15804,0.63218 -0.6096,1.33209 -0.45155,0.67734 -1.15147,1.19662 -0.69991,0.51929 -1.87395,0.85796 -1.15147,0.33867 -2.61902,0.33867 -0.92569,0 -1.78365,-0.15805 -0.83538,-0.13546 -1.71591,-0.51929 -0.88053,-0.4064 -1.51271,-1.016 -0.63218,-0.63217 -1.06116,-1.67075 -0.4064,-1.03858 -0.42897,-2.39325 h 1.98684 v 0.11289 q 0,0.69991 0.2032,1.30951 0.22578,0.6096 0.69991,1.19663 0.49671,0.58702 1.44498,0.94826 0.97084,0.33867 2.30293,0.33867 z" />
        <path
           inkscape:connector-curvature="0"
           id="path3749"
           style="font-style:normal;font-variant:normal;font-weight:normal;font-stretch:normal;font-size:22.57777786px;font-family:FreeSans;-inkscape-font-specification:FreeSans;fill:#ffffff;stroke-width:0.21561787"
           d="m 122.43418,213.43046 q 0.13546,-3.83822 4.74133,-3.83822 2.19004,0 3.31893,0.83537 1.12889,0.8128 1.12889,2.39325 v 6.95395 q 0,0.92569 1.016,0.92569 0.2032,0 0.4064,-0.0452 v 1.4224 q -0.79022,0.2032 -1.28693,0.2032 -0.90311,0 -1.37725,-0.42898 -0.45155,-0.4064 -0.56444,-1.30951 -1.89653,1.73849 -4.01885,1.73849 -1.78364,0 -2.8448,-0.94827 -1.03857,-0.94827 -1.03857,-2.55129 0,-0.51929 0.0903,-0.94827 0.11289,-0.42897 0.22578,-0.74506 0.13546,-0.33867 0.45155,-0.6096 0.31609,-0.29351 0.51929,-0.47414 0.22578,-0.18062 0.72249,-0.33866 0.51929,-0.18062 0.79022,-0.24836 0.27093,-0.0903 0.94827,-0.2032 0.67733,-0.11289 0.99342,-0.15804 0.31609,-0.0452 1.12889,-0.15805 1.10631,-0.13546 1.53529,-0.42897 0.42898,-0.29352 0.42898,-0.88054 v -0.49671 q 0,-0.85795 -0.69992,-1.30951 -0.67733,-0.45156 -1.94168,-0.45156 -1.30952,0 -1.98685,0.51929 -0.67733,0.49671 -0.79022,1.58045 z m 3.77048,7.20231 q 1.55787,0 2.55129,-0.8128 0.99343,-0.83538 0.99343,-1.78365 v -2.12231 q -0.56445,0.27094 -1.71592,0.45156 -1.12888,0.18062 -1.96426,0.31609 -0.83538,0.13546 -1.51271,0.65475 -0.67734,0.49671 -0.67734,1.39983 0,0.90311 0.6096,1.39982 0.6096,0.49671 1.71591,0.49671 z" />
        <path
           inkscape:connector-curvature="0"
           id="path3751"
           style="font-style:normal;font-variant:normal;font-weight:normal;font-stretch:normal;font-size:22.57777786px;font-family:FreeSans;-inkscape-font-specification:FreeSans;fill:#ffffff;stroke-width:0.21561787"
           d="m 134.85125,209.9309 h 1.73849 v 1.67076 q 0.76764,-1.06116 1.60302,-1.53529 0.85796,-0.47413 2.032,-0.47413 2.19004,0 3.18347,1.80622 0.83537,-0.99342 1.64817,-1.39982 0.8128,-0.4064 1.98685,-0.4064 1.64818,0 2.52871,0.85795 0.90311,0.83538 0.90311,2.4384 v 8.87307 h -1.89653 v -8.15058 q 0,-1.12889 -0.58702,-1.73849 -0.56445,-0.63218 -1.60303,-0.63218 -1.15146,0 -1.96426,0.90311 -0.8128,0.90312 -0.8128,2.19005 v 7.42809 h -1.89654 v -8.15058 q 0,-1.12889 -0.58702,-1.73849 -0.56444,-0.63218 -1.60302,-0.63218 -1.15147,0 -1.96427,0.90311 -0.8128,0.90312 -0.8128,2.19005 v 7.42809 h -1.89653 z" />
        <path
           inkscape:connector-curvature="0"
           id="path3753"
           style="font-style:normal;font-variant:normal;font-weight:normal;font-stretch:normal;font-size:22.57777786px;font-family:FreeSans;-inkscape-font-specification:FreeSans;fill:#ffffff;stroke-width:0.21561787"
           d="m 162.61063,221.76166 h -1.69334 v -1.64818 q -0.83537,1.17404 -1.73849,1.67076 -0.90311,0.49671 -2.21262,0.49671 -1.71591,0 -2.75449,-0.88054 -1.016,-0.88053 -1.016,-2.34809 v -9.12142 h 1.87396 v 8.37636 q 0,1.06115 0.65475,1.69333 0.65476,0.63218 1.78365,0.63218 1.46755,0 2.34809,-1.08373 0.88053,-1.10632 0.88053,-2.91254 v -6.7056 h 1.87396 z" />
        <path
           inkscape:connector-curvature="0"
           id="path3755"
           style="font-style:normal;font-variant:normal;font-weight:normal;font-stretch:normal;font-size:22.57777786px;font-family:FreeSans;-inkscape-font-specification:FreeSans;fill:#ffffff;stroke-width:0.21561787"
           d="m 175.32438,216.47846 h -8.71502 q 0.0452,1.85138 0.94827,2.95769 0.92569,1.10631 2.52871,1.10631 2.30293,0 3.09316,-2.37067 h 1.89653 q -0.36125,1.94169 -1.69333,3.02542 -1.33209,1.08374 -3.36409,1.08374 -2.48356,0 -3.92854,-1.67076 -1.44497,-1.69333 -1.44497,-4.60587 0,-2.91253 1.46755,-4.65102 1.49013,-1.76106 3.95111,-1.76106 5.26062,0 5.26062,6.88622 z m -8.66986,-1.53529 h 6.66044 q 0,-1.53529 -0.92569,-2.57387 -0.92569,-1.03858 -2.34809,-1.03858 -1.4224,0 -2.34808,0.99343 -0.92569,0.97084 -1.03858,2.61902 z" />
        <path
           inkscape:connector-curvature="0"
           id="path3757"
           style="font-style:normal;font-variant:normal;font-weight:normal;font-stretch:normal;font-size:22.57777786px;font-family:FreeSans;-inkscape-font-specification:FreeSans;fill:#ffffff;stroke-width:0.21561787"
           d="m 179.2575,205.30246 v 16.4592 h -1.89653 v -16.4592 z" />
        <path
           inkscape:connector-curvature="0"
           id="path3759"
           style="font-style:normal;font-variant:normal;font-weight:normal;font-stretch:normal;font-size:22.57777786px;font-family:FreeSans;-inkscape-font-specification:FreeSans;fill:#ffffff;stroke-width:0.21561787"
           d="m 203.29931,213.7917 q 0,3.6576 -2.16747,6.07342 -2.16746,2.41583 -5.77991,2.41583 -3.56729,0 -5.75733,-2.37067 -2.19005,-2.39324 -2.19005,-6.25404 0,-3.8608 2.19005,-6.23147 2.19004,-2.39325 5.73475,-2.39325 3.61245,0 5.77991,2.39325 2.19005,2.39324 2.19005,6.36693 z m -7.96996,-6.9088 q -2.61902,0 -4.22204,1.87396 -1.60302,1.85138 -1.60302,4.89938 0,3.048 1.60302,4.92195 1.6256,1.85138 4.24462,1.85138 2.61902,0 4.22205,-1.85138 1.6256,-1.85138 1.6256,-4.83164 0,-3.11574 -1.60303,-4.98969 -1.60302,-1.87396 -4.2672,-1.87396 z" />
        <path
           inkscape:connector-curvature="0"
           id="path3761"
           style="font-style:normal;font-variant:normal;font-weight:normal;font-stretch:normal;font-size:22.57777786px;font-family:FreeSans;-inkscape-font-specification:FreeSans;fill:#ffffff;stroke-width:0.21561787"
           d="m 214.79598,213.90459 h -1.89653 q -0.18062,-1.24178 -0.90311,-1.89653 -0.72249,-0.67734 -1.89654,-0.67734 -1.53529,0 -2.41582,1.26436 -0.85795,1.24178 -0.85795,3.4544 0,2.09973 0.88053,3.29636 0.88053,1.19662 2.4384,1.19662 2.41582,0 2.88995,-2.8448 h 1.89654 q -0.18062,2.16746 -1.44498,3.38666 -1.26436,1.19663 -3.38667,1.19663 -2.41582,0 -3.83822,-1.67076 -1.39982,-1.69333 -1.39982,-4.56071 0,-2.93511 1.4224,-4.69618 1.44498,-1.76106 3.83822,-1.76106 2.05458,0 3.27378,1.10631 1.24178,1.10631 1.39982,3.20604 z" />
        <path
           inkscape:connector-curvature="0"
           id="path3763"
           style="font-style:normal;font-variant:normal;font-weight:normal;font-stretch:normal;font-size:22.57777786px;font-family:FreeSans;-inkscape-font-specification:FreeSans;fill:#ffffff;stroke-width:0.21561787"
           d="m 224.47867,213.56592 q 0,-1.24177 -0.76764,-1.78364 -0.74507,-0.54187 -1.67076,-0.54187 -1.44498,0 -2.32551,1.10631 -0.88053,1.08374 -0.88053,2.88996 v 6.52498 h -1.87396 v -16.4592 h 1.87396 v 6.25404 q 0.83538,-1.08373 1.67075,-1.51271 0.85796,-0.45155 2.12231,-0.45155 1.71592,0 2.70934,0.88053 1.016,0.85795 1.016,2.34809 v 8.9408 h -1.87396 z" />
        <path
           inkscape:connector-curvature="0"
           id="path3765"
           style="font-style:normal;font-variant:normal;font-weight:normal;font-stretch:normal;font-size:22.57777786px;font-family:FreeSans;-inkscape-font-specification:FreeSans;fill:#ffffff;stroke-width:0.21561787"
           d="m 233.69394,209.59224 q 2.55129,0 3.95111,1.69333 1.4224,1.67075 1.4224,4.74133 0,2.91254 -1.44498,4.58329 -1.4224,1.67076 -3.90596,1.67076 -2.52871,0 -3.95111,-1.67076 -1.39982,-1.69333 -1.39982,-4.6736 0,-2.98027 1.4224,-4.65102 1.4224,-1.69333 3.90596,-1.69333 z m 0.0226,1.73848 q -1.58044,0 -2.48355,1.24178 -0.90311,1.2192 -0.90311,3.36409 0,2.14489 0.90311,3.38667 0.90311,1.2192 2.48355,1.2192 1.55787,0 2.46098,-1.2192 0.92569,-1.24178 0.92569,-3.31894 0,-2.19004 -0.90311,-3.43182 -0.88053,-1.24178 -2.48356,-1.24178 z" />
        <path
           inkscape:connector-curvature="0"
           id="path3767"
           style="font-style:normal;font-variant:normal;font-weight:normal;font-stretch:normal;font-size:22.57777786px;font-family:FreeSans;-inkscape-font-specification:FreeSans;fill:#ffffff;stroke-width:0.21561787"
           d="m 240.92341,213.43046 q 0.13546,-3.83822 4.74133,-3.83822 2.19004,0 3.31893,0.83537 1.12889,0.8128 1.12889,2.39325 v 6.95395 q 0,0.92569 1.016,0.92569 0.2032,0 0.4064,-0.0452 v 1.4224 q -0.79022,0.2032 -1.28693,0.2032 -0.90311,0 -1.37725,-0.42898 -0.45155,-0.4064 -0.56444,-1.30951 -1.89653,1.73849 -4.01885,1.73849 -1.78364,0 -2.8448,-0.94827 -1.03857,-0.94827 -1.03857,-2.55129 0,-0.51929 0.0903,-0.94827 0.11289,-0.42897 0.22578,-0.74506 0.13546,-0.33867 0.45155,-0.6096 0.31609,-0.29351 0.51929,-0.47414 0.22578,-0.18062 0.72249,-0.33866 0.51929,-0.18062 0.79022,-0.24836 0.27093,-0.0903 0.94827,-0.2032 0.67733,-0.11289 0.99342,-0.15804 0.31609,-0.0452 1.12889,-0.15805 1.10631,-0.13546 1.53529,-0.42897 0.42898,-0.29352 0.42898,-0.88054 v -0.49671 q 0,-0.85795 -0.69992,-1.30951 -0.67733,-0.45156 -1.94168,-0.45156 -1.30952,0 -1.98685,0.51929 -0.67733,0.49671 -0.79022,1.58045 z m 3.77048,7.20231 q 1.55787,0 2.55129,-0.8128 0.99343,-0.83538 0.99343,-1.78365 v -2.12231 q -0.56445,0.27094 -1.71592,0.45156 -1.12888,0.18062 -1.96426,0.31609 -0.83538,0.13546 -1.51271,0.65475 -0.67734,0.49671 -0.67734,1.39983 0,0.90311 0.6096,1.39982 0.6096,0.49671 1.71591,0.49671 z" />
      </g>
    </g>
  </g>
</svg>
